<?xml version="1.0" encoding="UTF-8"?> <!-- Generator: Adobe Illustrator 23.0.6, SVG Export Plug-In . SVG Version: 6.00 Build 0) --> <svg xmlns="http://www.w3.org/2000/svg" xmlns:xlink="http://www.w3.org/1999/xlink" id="Layer_1" x="0px" y="0px" viewBox="0 0 425 67" style="enable-background:new 0 0 425 67;" xml:space="preserve"> <style type="text/css"> .st0{fill:#000000;} </style> <path class="st0" d="M396.3,33.8l28,28l-2.8,2.8l-28-28l-28,28l-2.8-2.8l28-28l-28-28l2.8-2.8l28,28l28-28.1l2.8,2.8L396.3,33.8z M296.2,67c-18.5,0-33.4-15-33.4-33.4s15-33.3,33.4-33.3c18.5,0,33.4,15,33.4,33.4S314.6,67,296.2,67z M296.2,4 c-16.3,0-29.6,13.2-29.6,29.6s13.2,29.6,29.6,29.6s29.6-13.2,29.6-29.6S312.6,4,296.2,4z M190.2,67V0.2h4V63H236v4H190.2z M127.9,37.6H90.5V67h-4V0.2h4v33.3h37.4V0.2h4.4V67h-4.4V37.6L127.9,37.6z M38.1,35c-2.7,1.6-5.9,2.5-9.5,2.5H4.5v29.4H0.4V37.6 L0,33.8h28.2c2.6,0,5.1-0.7,7.3-2.1c2.1-1.4,3.7-3.2,4.7-5.4c1.1-2.3,1.7-5,1.6-7.6h0.1c0-2.6-0.5-5.1-1.6-7.5 c-1.1-2.2-2.7-4.1-4.7-5.4c-2.2-1.4-4.8-2.2-7.4-2.1H0.4L0,0c0.7,0.1,30.7,0.1,31.5,0.2c2.3,0.3,4.5,1.1,6.4,2.3 c2.6,1.7,4.7,4.1,6.1,6.8c1.4,2.9,2.2,6.1,2.2,9.4c0,3.2-0.7,6.5-2.2,9.4C42.8,31,40.7,33.4,38.1,35z M0.1,33.6v0.3l0,0V33.6z"></path> </svg> 