<?xml version="1.0" encoding="UTF-8"?> <svg xmlns="http://www.w3.org/2000/svg" xmlns:xlink="http://www.w3.org/1999/xlink" width="806.098" height="770.806" viewBox="0 0 806.098 770.806"><defs><clipPath id="clip-path"><path id="Rectangle_1" data-name="Rectangle 1" d="M46,240H852.1V989.093H476.615c-11.177,0-15.455,21.713-26.731,21.713s-15.157-21.713-27.148-21.713H46Z" transform="translate(0 223.194)"></path></clipPath><linearGradient id="linear-gradient" x1="1.08" y1="0.705" x2="-0.08" y2="0.295" gradientUnits="objectBoundingBox"><stop offset="0" stop-color="#ffba35"></stop><stop offset="1" stop-color="#f729dc"></stop></linearGradient><linearGradient id="linear-gradient-2" x1="-0.08" y1="0.455" x2="1.08" y2="0.545" gradientUnits="objectBoundingBox"><stop offset="0" stop-color="#ffba35"></stop><stop offset="0.645" stop-color="#f729dc"></stop><stop offset="0.992" stop-color="#3127ff"></stop><stop offset="1" stop-color="#3127ff"></stop></linearGradient><linearGradient id="linear-gradient-3" x1="0.015" y1="0.976" x2="0.985" y2="0.024" gradientUnits="objectBoundingBox"><stop offset="0" stop-color="#ffba35"></stop><stop offset="0.316" stop-color="#fb7289"></stop><stop offset="0.518" stop-color="#f729dc"></stop><stop offset="0.992" stop-color="#3127ff"></stop><stop offset="1" stop-color="#3127ff"></stop></linearGradient></defs><g id="Clip" transform="translate(-46 -463.194)" clip-path="url(#clip-path)"><path id="Ellipse_1" data-name="Ellipse 1" d="M143,18C397.477,2.07,401.644-417.8,622-215,752.916-94.514,448.33,369.012,224,419,3.086,468.227-100.8,385.234-145,254S-142.395,35.866,143,18Z" fill="url(#linear-gradient)"></path><path id="Ellipse_1_copy" data-name="Ellipse 1 copy" d="M1720,822c-92.022,425.184-684.98,242.379-467,695,139.067,224.936,739.168-109.612,1024-300s253.507-344.63,175-420C2345.475,694.731,1812.021,396.817,1720,822Z" fill="url(#linear-gradient-2)"></path><path id="Ellipse_1_copy_2" data-name="Ellipse 1 copy 2" d="M146,1293c-4.249-404.507,738.469-56.846,705-550C822.121,317.468,281.711,460.424,54,630c-260.193,193.77-468.6,25.927-627,380C-931.055,1810.374,151.736,1839.173,146,1293Z" opacity="0.969" fill="url(#linear-gradient-3)"></path></g></svg> 