<?xml version="1.0" encoding="UTF-8"?> <svg xmlns="http://www.w3.org/2000/svg" xmlns:xlink="http://www.w3.org/1999/xlink" width="1469" height="377" viewBox="0 0 1469 377"><defs><style>.a{opacity:0.5;fill:url(#a);}</style><linearGradient id="a" x1="0.507" y1="0.183" x2="0.665" y2="1.258" gradientUnits="objectBoundingBox"><stop offset="0" stop-color="#e6e6e6"></stop><stop offset="1" stop-color="#e6e6e6" stop-opacity="0"></stop></linearGradient></defs><path class="a" d="M499.577-356.91l-87,357h-88l-67-259-67,259h-87l-87-357h77l54,277,71-277h78l72,277,54-277Zm153,74c27.27,0,51.285,5.553,73,17a128.119,128.119,0,0,1,52,50c12.457,21.715,18,46.71,18,76s-5.543,54.453-18,76a130.319,130.319,0,0,1-52,50c-21.715,11.615-45.73,17-73,17s-52.285-5.385-74-17-38.543-28.453-51-50-19-46.71-19-76,6.543-54.285,19-76,29.285-38.553,51-50S625.307-282.91,652.577-282.91Zm0,61c-19.863,0-37.2,7.028-51,21s-20,34.4-20,61,6.2,47.028,20,61,31.137,21,51,21,36.2-7.028,50-21,21-34.4,21-61-7.2-47.028-21-61S672.44-221.91,652.577-221.91Zm240-4c10.437-17.843,23.83-31.732,41-42a112,112,0,0,1,58-16v76h-21c-52.183,0-78,24.52-78,73V.09h-71v-280h71Zm276,226-92-122V.09h-71v-374h71v210l92-116h84l-117,140,120,140Zm193-283c34,0,61.463,7.83,82,25s32.95,40.383,38,69h-67c-2.693-13.467-8.573-23.92-18-32s-21.85-12-37-12c-12.12,0-21.267,2.277-28,8s-10,13.237-10,23c0,7.743,2.613,14.287,8,19a57.068,57.068,0,0,0,20,11c8.08,2.693,19.85,6.3,35,10,21.21,4.713,38.7,9.782,52,15a82.792,82.792,0,0,1,34,24c9.595,11.278,15,26.81,15,46,0,23.9-9.315,43.187-28,58s-44.353,22-76,22c-36.36,0-65.117-7.672-87-24s-35.287-39.7-40-70h68c1.683,13.8,7.563,25.088,18,33s24.167,11,41,11c12.12,0,21.6-2.108,28-8s9-13.573,9-23c0-8.08-2.445-14.95-8-20a58.211,58.211,0,0,0-21-12c-8.248-2.693-19.85-5.3-35-9a369.188,369.188,0,0,1-50-15c-12.962-4.882-24.742-12.227-34-23s-14-26.147-14-45c0-24.24,9.483-43.85,28-59S1328.92-282.91,1361.577-282.91Z" transform="translate(-16.577 373.91)"></path></svg> 